<?xml version="1.0" standalone="no"?>
<!DOCTYPE svg PUBLIC "-//W3C//DTD SVG 20010904//EN"
 "http://www.w3.org/TR/2001/REC-SVG-20010904/DTD/svg10.dtd">
<svg version="1.0" xmlns="http://www.w3.org/2000/svg"
 width="828.000000pt" height="828.000000pt" viewBox="0 0 828.000000 828.000000"
 preserveAspectRatio="xMidYMid meet">

<g transform="translate(0.000000,828.000000) scale(0.100000,-0.100000)"
fill="#fff" stroke="none">

<path d="M3154 5941 c-53 -32 -82 -109 -94 -248 -5 -65 -11 -140 -12 -168 l-3
-50 -85 -63 c-85 -64 -249 -216 -305 -282 -79 -93 -143 -199 -175 -287 l-22
-61 -47 -5 c-70 -7 -172 -27 -192 -38 -28 -15 -33 -51 -21 -178 12 -139 23
-199 57 -317 91 -313 262 -514 502 -592 108 -36 279 -38 453 -6 82 15 117 78
68 124 -26 24 -24 23 -108 5 -89 -20 -272 -19 -341 1 -71 21 -147 58 -184 90
-16 14 -37 31 -46 38 -29 21 -117 141 -147 202 -62 123 -111 308 -119 450 l-4
72 33 6 c18 4 56 11 83 16 115 20 119 22 134 70 51 165 130 287 270 421 103
98 153 140 242 203 37 25 72 53 79 61 9 11 16 72 21 198 8 212 11 227 48 227
49 0 248 -66 322 -108 19 -10 65 -36 102 -58 38 -21 77 -44 88 -50 43 -25 149
-127 179 -173 26 -39 47 -56 107 -87 41 -21 77 -42 79 -46 2 -3 -38 -48 -90
-100 -283 -283 -381 -650 -266 -998 55 -165 149 -310 301 -461 122 -122 144
-132 199 -94 40 27 185 176 236 241 77 98 145 240 195 404 19 60 19 315 0 395
-47 207 -136 380 -278 541 -24 26 -43 51 -43 55 0 11 118 57 202 79 110 28
294 28 392 -1 236 -70 403 -248 489 -519 38 -119 57 -192 57 -219 0 -10 9 -26
21 -37 19 -17 44 -19 293 -24 l271 -5 -1 -50 c-2 -57 -18 -177 -33 -248 -45
-205 -160 -372 -307 -446 -39 -20 -96 -37 -158 -47 -89 -15 -104 -15 -199 0
-142 23 -177 23 -193 1 -37 -51 -4 -97 81 -114 33 -7 78 -17 100 -22 59 -15
259 -6 330 14 87 25 178 75 241 131 93 82 181 238 219 386 9 36 20 81 25 100
17 67 32 235 29 317 -6 125 12 117 -311 121 -175 2 -277 7 -285 14 -7 6 -13
20 -13 31 0 21 -3 32 -41 147 -56 170 -131 291 -258 412 -69 67 -105 93 -181
130 -52 26 -113 50 -135 54 -22 4 -43 11 -46 17 -4 6 -72 10 -165 11 -122 0
-175 -4 -229 -18 -100 -25 -182 -54 -245 -87 -62 -33 -77 -35 -105 -15 -11 7
-38 24 -60 36 -22 12 -57 31 -77 43 -21 11 -38 26 -38 32 0 18 -148 161 -215
207 -138 96 -326 181 -480 218 -103 25 -151 25 -191 1z m1157 -798 c114 -117
195 -265 238 -434 19 -73 22 -106 18 -225 -2 -76 -9 -159 -16 -184 -29 -110
-104 -256 -179 -350 -42 -52 -150 -160 -161 -160 -9 0 -131 123 -163 165 -111
142 -174 290 -198 465 -16 118 8 270 61 387 10 24 19 47 19 52 0 20 107 170
164 229 57 60 131 122 145 122 4 0 36 -30 72 -67z"/>
</g>
</svg>
